<svg width="139" height="20" viewBox="0 0 139 20" fill="none" xmlns="http://www.w3.org/2000/svg">
<g clip-path="url(#clip0_12_155793)">
<path d="M16.875 13.3813L14.375 11.925C14.1074 11.7656 13.7898 11.7118 13.4846 11.7742C13.1794 11.8366 12.9085 12.0108 12.725 12.2625L11.3625 14.075C10.1117 13.6292 8.96229 12.9387 7.98124 12.0438C7.08567 11.0609 6.39512 9.90929 5.94999 8.65631L7.76249 7.30005C8.01425 7.11654 8.1884 6.84564 8.25083 6.54043C8.31326 6.23521 8.25947 5.91768 8.09999 5.65006L6.61874 3.12505C6.5337 2.96823 6.41607 2.83143 6.27377 2.72384C6.13147 2.61626 5.96778 2.54037 5.79372 2.50129C5.61965 2.46222 5.43924 2.46087 5.26461 2.49731C5.08997 2.53374 4.92516 2.60713 4.78125 2.71255L3.92499 3.33755C3.49707 3.63701 3.14795 4.03558 2.90743 4.4992C2.66691 4.96283 2.54213 5.47776 2.54374 6.00006C2.48212 7.51883 2.75276 9.03274 3.33677 10.4361C3.92078 11.8394 4.80408 13.0984 5.925 14.1251C6.95165 15.246 8.2106 16.1293 9.61395 16.7133C11.0173 17.2973 12.5312 17.5679 14.05 17.5063C14.5723 17.5079 15.0872 17.3831 15.5509 17.1426C16.0145 16.9021 16.413 16.553 16.7125 16.125L17.3375 15.2688C17.4502 15.1205 17.5284 14.9489 17.5663 14.7666C17.6042 14.5842 17.6009 14.3956 17.5566 14.2147C17.5122 14.0338 17.428 13.8651 17.3101 13.7209C17.1922 13.5767 17.0435 13.4607 16.875 13.3813Z" fill="#03050F"/>
<path d="M31.7671 18.016C30.8671 16.672 30.2371 15.388 29.8771 14.164C29.5291 12.928 29.3551 11.65 29.3551 10.33C29.3551 9.01 29.5291 7.738 29.8771 6.514C30.2371 5.278 30.8671 3.988 31.7671 2.644H34.5031C33.6391 3.904 33.0091 5.164 32.6131 6.424C32.2291 7.684 32.0371 8.986 32.0371 10.33C32.0371 11.674 32.2291 12.976 32.6131 14.236C33.0091 15.496 33.6391 16.756 34.5031 18.016H31.7671ZM40.9892 16.144C40.0172 16.144 39.1592 15.892 38.4152 15.388C37.6712 14.884 37.0952 14.152 36.6872 13.192C36.2792 12.22 36.0752 11.056 36.0752 9.7C36.0752 8.344 36.2792 7.186 36.6872 6.226C37.0952 5.254 37.6712 4.516 38.4152 4.012C39.1592 3.508 40.0172 3.256 40.9892 3.256C41.9612 3.256 42.8132 3.508 43.5452 4.012C44.2892 4.516 44.8652 5.254 45.2732 6.226C45.6812 7.186 45.8852 8.344 45.8852 9.7C45.8852 11.056 45.6812 12.22 45.2732 13.192C44.8652 14.152 44.2892 14.884 43.5452 15.388C42.8132 15.892 41.9612 16.144 40.9892 16.144ZM38.7932 9.7C38.7932 11.068 38.9852 12.082 39.3692 12.742C39.7652 13.39 40.3052 13.714 40.9892 13.714C41.6732 13.714 42.2072 13.39 42.5912 12.742C42.9872 12.082 43.1852 11.068 43.1852 9.7C43.1852 8.332 42.9872 7.324 42.5912 6.676C42.2072 6.016 41.6732 5.686 40.9892 5.686C40.3052 5.686 39.7652 6.016 39.3692 6.676C38.9852 7.324 38.7932 8.332 38.7932 9.7ZM50.282 7.342H47.6V5.002H48.266C49.082 5.002 49.676 4.882 50.048 4.642C50.42 4.402 50.672 3.988 50.804 3.4H52.946V16H50.282V7.342ZM55.1124 18.016C55.9764 16.756 56.6004 15.496 56.9844 14.236C57.3804 12.976 57.5784 11.674 57.5784 10.33C57.5784 8.986 57.3804 7.684 56.9844 6.424C56.6004 5.164 55.9764 3.904 55.1124 2.644H57.8484C58.7484 3.988 59.3724 5.278 59.7204 6.514C60.0804 7.738 60.2604 9.01 60.2604 10.33C60.2604 11.65 60.0804 12.928 59.7204 14.164C59.3724 15.388 58.7484 16.672 57.8484 18.016H55.1124ZM72.7216 13.768H66.7636V11.644L72.0376 3.4H75.2236V11.5H76.6996V13.768H75.2236V16H72.7216V13.768ZM72.7216 11.5V6.37L69.4636 11.5H72.7216ZM80.5168 7.342H77.8348V5.002H78.5008C79.3168 5.002 79.9108 4.882 80.2828 4.642C80.6548 4.402 80.9068 3.988 81.0388 3.4H83.1808V16H80.5168V7.342ZM88.3172 7.342H85.6352V5.002H86.3012C87.1172 5.002 87.7112 4.882 88.0832 4.642C88.4552 4.402 88.7072 3.988 88.8392 3.4H90.9812V16H88.3172V7.342ZM102.471 16.144C101.607 16.144 100.815 15.946 100.095 15.55C99.3746 15.154 98.8046 14.608 98.3846 13.912C97.9646 13.204 97.7546 12.412 97.7546 11.536C97.7546 10.96 97.8686 10.372 98.0966 9.772C98.3246 9.172 98.7146 8.464 99.2666 7.648L102.111 3.4H105.261L102.705 7.162H102.903C103.695 7.162 104.421 7.348 105.081 7.72C105.741 8.092 106.263 8.614 106.647 9.286C107.031 9.946 107.223 10.69 107.223 11.518C107.223 12.382 107.013 13.168 106.593 13.876C106.173 14.572 105.597 15.124 104.865 15.532C104.145 15.94 103.347 16.144 102.471 16.144ZM100.419 11.554C100.419 12.178 100.617 12.694 101.013 13.102C101.409 13.51 101.901 13.714 102.489 13.714C103.077 13.714 103.569 13.51 103.965 13.102C104.361 12.694 104.559 12.178 104.559 11.554C104.559 10.93 104.361 10.414 103.965 10.006C103.569 9.598 103.077 9.394 102.489 9.394C101.901 9.394 101.409 9.598 101.013 10.006C100.617 10.414 100.419 10.93 100.419 11.554ZM113.9 16.144C112.928 16.144 112.07 15.892 111.326 15.388C110.582 14.884 110.006 14.152 109.598 13.192C109.19 12.22 108.986 11.056 108.986 9.7C108.986 8.344 109.19 7.186 109.598 6.226C110.006 5.254 110.582 4.516 111.326 4.012C112.07 3.508 112.928 3.256 113.9 3.256C114.872 3.256 115.724 3.508 116.456 4.012C117.2 4.516 117.776 5.254 118.184 6.226C118.592 7.186 118.796 8.344 118.796 9.7C118.796 11.056 118.592 12.22 118.184 13.192C117.776 14.152 117.2 14.884 116.456 15.388C115.724 15.892 114.872 16.144 113.9 16.144ZM111.704 9.7C111.704 11.068 111.896 12.082 112.28 12.742C112.676 13.39 113.216 13.714 113.9 13.714C114.584 13.714 115.118 13.39 115.502 12.742C115.898 12.082 116.096 11.068 116.096 9.7C116.096 8.332 115.898 7.324 115.502 6.676C115.118 6.016 114.584 5.686 113.9 5.686C113.216 5.686 112.676 6.016 112.28 6.676C111.896 7.324 111.704 8.332 111.704 9.7ZM125.673 16.144C124.701 16.144 123.843 15.892 123.099 15.388C122.355 14.884 121.779 14.152 121.371 13.192C120.963 12.22 120.759 11.056 120.759 9.7C120.759 8.344 120.963 7.186 121.371 6.226C121.779 5.254 122.355 4.516 123.099 4.012C123.843 3.508 124.701 3.256 125.673 3.256C126.645 3.256 127.497 3.508 128.229 4.012C128.973 4.516 129.549 5.254 129.957 6.226C130.365 7.186 130.569 8.344 130.569 9.7C130.569 11.056 130.365 12.22 129.957 13.192C129.549 14.152 128.973 14.884 128.229 15.388C127.497 15.892 126.645 16.144 125.673 16.144ZM123.477 9.7C123.477 11.068 123.669 12.082 124.053 12.742C124.449 13.39 124.989 13.714 125.673 13.714C126.357 13.714 126.891 13.39 127.275 12.742C127.671 12.082 127.869 11.068 127.869 9.7C127.869 8.332 127.671 7.324 127.275 6.676C126.891 6.016 126.357 5.686 125.673 5.686C124.989 5.686 124.449 6.016 124.053 6.676C123.669 7.324 123.477 8.332 123.477 9.7ZM134.966 7.342H132.284V5.002H132.95C133.766 5.002 134.36 4.882 134.732 4.642C135.104 4.402 135.356 3.988 135.488 3.4H137.63V16H134.966V7.342Z" fill="#03050F"/>
</g>
<defs>
<clipPath id="clip0_12_155793">
<rect width="139" height="20" fill="white"/>
</clipPath>
</defs>
</svg>
